Coordinates
version=1
nRows=14
nColumns=24
inDegrees=yes

Units are S.I. units (second, meters, Newtons, ...)
Angles are in degrees.

endheader
time	pelvis_tilt	pelvis_list	pelvis_rotation	pelvis_tx	pelvis_ty	pelvis_tz	hip_flexion_r	hip_adduction_r	hip_rotation_r	knee_angle_r	ankle_angle_r	subtalar_angle_r	mtp_angle_r	hip_flexion_l	hip_adduction_l	hip_rotation_l	knee_angle_l	ankle_angle_l	subtalar_angle_l	mtp_angle_l	lumbar_extension	lumbar_bending	lumbar_rotation
      1.78300000	      2.41666454	      3.87243818	     -2.45419152	      1.42119947	      1.02569743	      0.24337797	     14.76599936	     -6.63610293	     -5.10247968	    -64.92303985	      3.84735295	     -9.31396505	      1.30249079	      9.12953811	      9.35052188	      2.47458154	    -16.57122516	      8.68701693	    -13.10540011	      2.22060501	     -1.43976667	     -8.15716365	      4.94073249
      1.78716667	      2.47813486	      3.72936752	     -2.25031337	      1.42530189	      1.02653222	      0.24282971	     15.18760509	     -6.48989382	     -5.22704831	    -64.34627904	      4.33179897	     -9.38555931	      1.24280546	      8.64487221	      9.24773831	      2.70137973	    -16.28968140	      8.72099347	    -13.04333731	      2.21737046	     -1.69064301	     -7.96004288	      4.60265469
      1.79133333	      2.52449194	      3.60919676	     -2.05906959	      1.42946134	      1.02729941	      0.24228495	     15.61443067	     -6.37439812	     -5.35496390	    -63.73120674	      4.77987899	     -9.53617396	      1.16205400	      8.17429635	      9.16186994	      2.87740703	    -16.00168107	      8.73774159	    -12.98891575	      2.20942528	     -1.85820461	     -7.77890896	      4.25818325
      1.79550000	      2.55328791	      3.49377533	     -1.86438984	      1.43358893	      1.02799907	      0.24174762	     16.04976993	     -6.26243545	     -5.48496872	    -63.07825978	      5.19696979	     -9.72591385	      1.06738416	      7.73625948	      9.07561446	      3.04583708	    -15.73312792	      8.75131479	    -12.91328380	      2.20193826	     -2.02509593	     -7.61775705	      3.97322651
      1.79966667	      2.55374613	      3.36839564	     -1.66715903	      1.43770635	      1.02862394	      0.24121472	     16.49998039	     -6.13959821	     -5.62508071	    -62.37877658	      5.58911638	     -9.93317872	      1.01520231	      7.34345944	      8.97345109	      3.20287044	    -15.49175569	      8.77811585	    -12.82189269	      2.19991600	     -2.15806767	     -7.44144856	      3.80523459
      1.80383333	      2.62968744	      3.25993038	     -1.47950344	      1.44185668	      1.02933721	      0.24067714	     16.84899043	     -6.04591908	     -5.77900170	    -61.62695989	      5.91625784	    -10.19848270	      0.92384854	      6.85126248	      8.88794988	      3.33715372	    -15.21154923	      8.81398638	    -12.72425886	      2.19511164	     -2.36771567	     -7.26819116	      3.49395207
      1.80800000	      2.64249742	      3.14853372	     -1.28301000	      1.44597679	      1.02990935	      0.24015667	     17.25577021	     -5.94206670	     -5.93136850	    -60.84192813	      6.23673654	    -10.47293729	      0.85619533	      6.44962578	      8.79502440	      3.49291700	    -14.97691064	      8.84804239	    -12.62633228	      2.19298789	     -2.51541445	     -7.11052242	      3.28547416
      1.81216667	      2.67239769	      3.04300907	     -1.09525973	      1.45012221	      1.03046546	      0.23963573	     17.62967587	     -5.84962291	     -6.09210325	    -60.01201696	      6.50986505	    -10.79024660	      0.77066712	      6.03369377	      8.70535550	      3.62191953	    -14.75103154	      8.90593987	    -12.52296833	      2.19180413	     -2.66115814	     -6.94819404	      3.03490680
      1.81633333	      2.70486598	      2.96306284	     -0.92364962	      1.45429977	      1.03097379	      0.23914134	     17.99040340	     -5.78503496	     -6.24426893	    -59.15787136	      6.73288196	    -11.15710572	      0.64913328	      5.60801344	      8.63915836	      3.73498008	    -14.50131899	      8.95377761	    -12.40861987	      2.18872928	     -2.80505599	     -6.80040473	      2.76551941
      1.82050000	      2.71450553	      2.86473999	     -0.71558686	      1.45847574	      1.03143216	      0.23862075	     18.34697447	     -5.70439280	     -6.43140410	    -58.25178557	      6.96321630	    -11.50157437	      0.55848861	      5.22978500	      8.55213173	      3.87614415	    -14.30569810	      9.01444477	    -12.29534401	      2.18941277	     -2.92656671	     -6.66356994	      2.57285070
      1.82466667	      2.75850199	      2.80245963	     -0.54488124	      1.46263175	      1.03187359	      0.23814645	     18.67001766	     -5.65785828	     -6.58728526	    -57.32890516	      7.11553249	    -11.92414118	      0.41988924	      4.80659291	      8.50083618	      3.98921033	    -14.08256472	      9.08187611	    -12.17983964	      2.18726860	     -3.08505267	     -6.53483442	      2.30057733
      1.82883333	      2.76592051	      2.73159693	     -0.36646849	      1.46677372	      1.03223125	      0.23769446	     19.01915292	     -5.59667387	     -6.74767094	    -56.36723208	      7.25068427	    -12.36166807	      0.22414612	      4.44664134	      8.43564935	      4.09628019	    -13.90628154	      9.14428527	    -12.05562510	      2.18576672	     -3.21880710	     -6.42459956	      2.04306214
      1.83300000	      2.76479315	      2.66369191	     -0.17200872	      1.47099909	      1.03253716	      0.23721991	     19.35337236	     -5.54948176	     -6.93538948	    -55.37817194	      7.38910709	    -12.73365949	      0.11063014	      4.09198486	      8.37557620	      4.23547127	    -13.73564041	      9.23903228	    -11.96114614	      2.18785446	     -3.30969516	     -6.30840929	      1.90976184
      1.83716667	      2.78960219	      2.60854656	      0.00236348	      1.47517144	      1.03284908	      0.23679889	     19.65093193	     -5.50463283	     -7.09973439	    -54.35381977	      7.44712800	    -13.18552152	     -0.03593563	      3.71214682	      8.32437941	      4.36165081	    -13.55814581	      9.32150374	    -11.85893440	      2.18699447	     -3.44130327	     -6.20555058	      1.69439228
